<svg width="24" height="24" viewBox="0 0 24 24" fill="none" xmlns="http://www.w3.org/2000/svg">
  <path fill-rule="evenodd" clip-rule="evenodd" d="M10.6016 12.5284C10.6016 12.2009 10.4193 11.8988 10.1242 11.7375C9.82921 11.5762 9.46712 11.5806 9.1764 11.749L7.04968 12.9814C6.60401 13.2396 6.45949 13.7979 6.7269 14.2283C6.9943 14.6587 7.57236 14.7983 8.01804 14.5401L8.7195 14.1336L8.71946 17.7254C8.71946 18.2273 9.14079 18.6342 9.66053 18.6342C10.1803 18.6342 10.6016 18.2273 10.6016 17.7254L10.6016 12.5284Z" fill="#DBDBDB"/>
  <path fill-rule="evenodd" clip-rule="evenodd" d="M16.1067 12.323C15.0992 11.4149 13.505 11.5251 12.6418 12.5626L12.3298 12.9375C12.0042 13.3288 12.0688 13.9009 12.4739 14.2153C12.879 14.5297 13.4714 14.4674 13.797 14.0761L14.1089 13.7012C14.2867 13.4875 14.615 13.4648 14.8225 13.6519C15.0137 13.8242 15.0303 14.1115 14.86 14.3033L12.3489 17.1327C12.1097 17.4022 12.0548 17.7815 12.2084 18.104C12.362 18.4264 12.6959 18.633 13.0634 18.633H16.0408C16.5605 18.633 16.9819 18.2261 16.9819 17.7242C16.9819 17.2222 16.5605 16.8153 16.0408 16.8153H15.1095L16.2891 15.4863C17.1156 14.5549 17.0352 13.1599 16.1067 12.323Z" fill="#DBDBDB"/>
  <path fill-rule="evenodd" clip-rule="evenodd" d="M16.4661 0C15.8289 0 15.3124 0.498866 15.3124 1.11425V2.4647H9.11298V1.11425C9.11298 0.498866 8.59643 0 7.95924 0H5.40718C4.76998 0 4.25343 0.498866 4.25343 1.11425V2.4647H2.64245C1.18306 2.4647 0 3.60726 0 5.01669V21.448C0 22.8574 1.18306 24 2.64245 24H21.3576C22.8169 24 24 22.8574 24 21.448V5.01669C24 3.60726 22.8169 2.4647 21.3576 2.4647H20.1719V1.11425C20.1719 0.498866 19.6554 0 19.0182 0H16.4661ZM18.2898 4.51861H17.1945V1.81772H18.2898V4.51861ZM2.64245 4.28241H4.25343V5.22208C4.25343 5.83746 4.76998 6.33633 5.40718 6.33633H7.95924C8.59643 6.33633 9.11298 5.83746 9.11298 5.22208V4.28241H15.3124V5.22208C15.3124 5.83746 15.8289 6.33633 16.4661 6.33633H19.0182C19.6554 6.33633 20.1719 5.83746 20.1719 5.22208V4.28241H21.3576C21.7775 4.28241 22.1179 4.61116 22.1179 5.01669V7.80488H1.88214V5.01669C1.88214 4.61116 2.22254 4.28241 2.64245 4.28241ZM1.88214 21.448V9.62259H22.1179V21.448C22.1179 21.8535 21.7775 22.1823 21.3576 22.1823H2.64245C2.22254 22.1823 1.88214 21.8535 1.88214 21.448ZM7.23084 1.81772V4.51861H6.13558V1.81772H7.23084Z" fill="#DBDBDB"/>
</svg>
