<svg width="23" height="18" viewBox="0 0 23 18" fill="none" xmlns="http://www.w3.org/2000/svg">
  <path fill-rule="evenodd" clip-rule="evenodd" d="M7.49995 8C8.60452 8 9.49995 7.10457 9.49995 6C9.49995 4.89543 8.60452 4 7.49995 4C6.39538 4 5.49995 4.89543 5.49995 6C5.49995 7.10457 6.39538 8 7.49995 8ZM7.49995 10C9.70909 10 11.5 8.20914 11.5 6C11.5 3.79086 9.70909 2 7.49995 2C5.29082 2 3.49995 3.79086 3.49995 6C3.49995 8.20914 5.29082 10 7.49995 10Z" fill="#DBDBDB"/>
  <path fill-rule="evenodd" clip-rule="evenodd" d="M16.5 5C17.3284 5 18 4.32843 18 3.5C18 2.67157 17.3284 2 16.5 2C15.6715 2 15 2.67157 15 3.5C15 4.32843 15.6715 5 16.5 5ZM16.5 7C18.433 7 20 5.433 20 3.5C20 1.567 18.433 0 16.5 0C14.567 0 13 1.567 13 3.5C13 5.433 14.567 7 16.5 7Z" fill="#DBDBDB"/>
  <path fill-rule="evenodd" clip-rule="evenodd" d="M1.98034 17.1971L1.9797 17.2002L1.98009 17.1984L1.98564 17.1742C1.99147 17.1495 2.00166 17.1085 2.01698 17.0535C2.04769 16.9433 2.09864 16.7782 2.17588 16.5767C2.33133 16.1712 2.58747 15.6333 2.98745 15.1C3.76554 14.0626 5.11074 13 7.49995 13C9.88916 13 11.2344 14.0626 12.0124 15.1C12.4124 15.6333 12.6686 16.1712 12.824 16.5767C12.9013 16.7782 12.9522 16.9433 12.9829 17.0535C12.9982 17.1085 13.0084 17.1495 13.0143 17.1742L13.0198 17.1984L13.0202 17.2003C13.1304 17.7395 13.6559 18.0886 14.1961 17.9806C14.7376 17.8723 15.0888 17.3454 14.9805 16.8039L14.9781 16.792C14.974 16.7729 14.9803 16.8028 14.9803 16.8028L14.9801 16.8016L14.9795 16.7989L14.9781 16.792L14.974 16.7729C14.9707 16.7577 14.9662 16.7379 14.9605 16.7135C14.949 16.6649 14.9323 16.5985 14.9096 16.5168C14.8641 16.3536 14.794 16.1281 14.6915 15.8608C14.4876 15.3288 14.15 14.6167 13.6124 13.9C12.5155 12.4374 10.6107 11 7.49995 11C4.38916 11 2.48436 12.4374 1.38745 13.9C0.849928 14.6167 0.512316 15.3288 0.30839 15.8608C0.205941 16.1281 0.135798 16.3536 0.0903391 16.5168C0.0675774 16.5985 0.0509067 16.6649 0.0394034 16.7135C0.033649 16.7379 0.0291793 16.7577 0.02588 16.7729L0.0217917 16.792L0.0203772 16.7989L0.0198227 16.8016L0.0195829 16.8028L0.0203772 16.7989L0.019368 16.8039C-0.0889439 17.3454 0.262273 17.8723 0.803833 17.9806C1.34401 18.0886 1.86953 17.7394 1.9797 17.2002M1.98034 17.1971L1.98009 17.1984L1.98034 17.1971Z" fill="#DBDBDB"/>
  <path fill-rule="evenodd" clip-rule="evenodd" d="M16.1499 10C14.9817 10 14.1107 10.2498 13.4596 10.5868C12.9691 10.8406 12.3657 10.6488 12.1119 10.1583C11.858 9.66783 12.0498 9.06442 12.5403 8.81056C13.495 8.31643 14.6845 8 16.1499 8C18.9383 8 20.6742 9.14468 21.6955 10.3551C22.194 10.946 22.5089 11.5353 22.7002 11.979C22.7963 12.2017 22.8625 12.3907 22.9058 12.5291C22.9276 12.5984 22.9437 12.6553 22.955 12.6978C22.9606 12.7191 22.9651 12.7367 22.9685 12.7506L22.9728 12.7685L22.9744 12.7752L22.975 12.7781L22.9753 12.7793L22.9756 12.7805C23.0968 13.3193 22.7583 13.8544 22.2195 13.9756C21.6829 14.0963 21.15 13.7611 21.0259 13.2262L21.0223 13.2124C21.018 13.1963 21.0099 13.1673 20.9974 13.1272C20.9722 13.0468 20.9294 12.9233 20.8637 12.771C20.7316 12.4647 20.5121 12.054 20.1669 11.6449C19.5007 10.8553 18.3115 10 16.1499 10Z" fill="#DBDBDB"/>
</svg>
